<svg id="Layer_1" data-name="Layer 1" xmlns="http://www.w3.org/2000/svg" viewBox="0 0 949.285 897.597">
  <title>log</title>
  <g>
    <path d="M508.562,629.577q-80.1,0-160.211.035c-14.61.026-28.8-1.93-42-8.4-33.981-16.651-53.053-43.879-53.268-81.8-.607-106.5-.356-213-.144-319.5.09-45.2,33.752-82.913,78.653-89.172a103.2,103.2,0,0,1,14.352-1.1q79.7.052,159.41.01a35.57,35.57,0,0,1,11.075,1.25c11.337,3.632,17.97,13.971,16.577,26.028-1.231,10.664-10.382,19.431-21.455,20.422-2.651.237-5.336.14-8,.141q-78.1.011-156.206-.012c-14.451-.012-26.653,4.888-35.915,16.164-6.7,8.155-9.478,17.62-9.453,28.206q.188,80.076.057,160.153,0,78.074.02,156.149c.024,20.527,12.257,36.564,31.679,42.072a43.04,43.04,0,0,0,11.887,1.331q163.414.02,326.83-.038c25.2-.026,43.2-18.413,43.232-43.7q.105-76.073.023-152.145c0-2.4-.078-4.81.057-7.2a24.2,24.2,0,0,1,22.374-23.12c12.882-.941,23.709,7.173,26.147,19.768a42.248,42.248,0,0,1,.558,7.957c.03,51.783.149,103.566-.015,155.348-.156,49.224-38.041,88.731-87.243,90.861-15.459.669-30.967.282-46.452.293Q569.843,629.61,508.562,629.577Z" transform="translate(-37.357 -63.202)"/>
    <path d="M745.854,111.271c-1.808-1.07-4.808-.3-7.654-.307-27.235-.068-54.469-.023-81.7-.065a60.367,60.367,0,0,1-9.57-.572c-12.074-1.969-20.2-12.077-19.781-24.332a23.373,23.373,0,0,1,21.733-22.633c1.857-.165,3.734-.141,5.6-.141q66.883-.011,133.769-.019a47.737,47.737,0,0,1,18.025,3.021c12.91,5.144,26.886,18.983,26.708,40.9-.352,43.5-.1,87.011-.106,130.517,0,1.334.006,2.671-.08,4a23.65,23.65,0,0,1-20.4,22.282c-12.222,1.554-22.87-4.6-26.924-15.44-1.447-3.87-1.314-7.863-1.317-11.853q-.031-40.837-.038-81.673c0-2.58.53-5.253-.587-7.732-2.56-.713-3.4,1.421-4.606,2.6Q671.21,254.994,563.563,360.237c-12.027,11.753-24.125,23.434-36.076,35.263-7.069,7-15.438,9.526-24.932,7.09-18.133-4.652-23.973-26.374-10.657-40,11.562-11.835,23.593-23.212,35.427-34.78Q620.093,237.129,712.8,146.387C724.2,135.194,734.736,123.128,745.854,111.271Z" transform="translate(-37.357 -63.202)"/>
    <path d="M986.5,872.389c.634,12.671-.754,25.1-5.713,36.858-12.012,28.477-34.025,44.245-63.972,49.792-15.586,2.887-30.85,1.408-45.825-3.41a77.646,77.646,0,0,1-54.17-69.487c-.66-10.628-.954-21.321.848-31.939,6.129-36.115,32.208-61.932,68.388-67.95,16.724-2.783,33.062-1.63,48.819,4.487,31.751,12.326,48.792,35.8,51.581,69.647C986.782,864.362,986.5,868.387,986.5,872.389ZM861,872.27c0,2.936.079,5.874-.014,8.807-.371,11.778,4.837,20.847,14.519,26.842,15.975,9.891,32.871,10.5,49.537,1.886,10.675-5.518,16.69-14.73,17.019-27.074.156-5.867.042-11.742.073-17.613.08-15.147-7.7-25.164-20.977-31.157-11.377-5.135-23.216-5.537-35.166-1.837Q861.142,839.819,861,865.865C861,868,861,870.135,861,872.27Z" transform="translate(-37.357 -63.202)"/>
    <path d="M627.435,841.938c0-13.34-.063-26.68.022-40.02.057-8.819,2.73-11.624,11.345-11.8,8-.161,16.017-.191,24.018.021,7.565.2,10.749,3.313,10.775,10.847.1,26.679.161,53.36-.125,80.037a87.3,87.3,0,0,1-5.121,28.229c-10.766,30.415-37.194,49.841-69.672,51.363a86.709,86.709,0,0,1-31.6-3.864C536.191,946.522,520,924.27,515.378,892.8a133.684,133.684,0,0,1-1.112-19.956c.091-22.41.034-44.821.036-67.232,0-1.868-.1-3.745.051-5.6.5-6.268,3.316-9.555,9.429-9.784,9.061-.339,18.153-.327,27.215-.007,6.4.225,8.954,3.159,9.405,9.585.149,2.125.066,4.267.067,6.4q0,35.217,0,70.435c0,1.867-.047,3.737.021,5.6.914,25.224,22.38,39.852,46.352,31.6,12.991-4.474,20.068-14.56,20.453-30.286.34-13.864.071-27.744.071-41.617Z" transform="translate(-37.357 -63.202)"/>
    <path d="M188.505,842.981c0-13.605-.059-27.211.023-40.816.055-8.985,2.971-11.891,12.042-12.057,6.936-.126,13.877-.071,20.815-.019,10.831.081,13.309,2.488,13.326,13.127.04,25.344-.008,50.687.042,76.031a59.12,59.12,0,0,0,.629,10.359c3.3,18.291,20.311,29.274,39.584,25.737,15.75-2.891,24.425-12.062,26.007-28.014.577-5.821.528-11.716.544-17.578.058-21.608.014-43.217.036-64.826a54.067,54.067,0,0,1,.309-7.183c.569-4.2,3.194-7.061,7.307-7.318a217.412,217.412,0,0,1,31.175.076c3.792.307,6.142,2.988,6.926,6.786a15.2,15.2,0,0,1,.318,3.176c-.221,28.806.788,57.625-.546,86.416a78.282,78.282,0,0,1-11.46,37.084c-14.094,23.415-35.695,34.33-62.233,36.56a80.238,80.238,0,0,1-27.758-2.575c-31.742-8.559-49.579-29.713-55.5-61.452-3.057-16.384-1.115-33-1.582-49.512C188.47,845.65,188.5,844.315,188.505,842.981Z" transform="translate(-37.357 -63.202)"/>
    <path d="M110.472,891.067q0,24.426,0,48.851c0,1.869.07,3.744-.057,5.605-.487,7.145-3.388,10.12-10.518,10.29-7.74.185-15.488.112-23.231.034-9.5-.1-12.237-2.832-12.255-12.59q-.088-50.052-.025-100.1c0-12.208,0-12.206-12.354-12.23-1.87,0-3.751.11-5.605-.063-5.236-.488-8.568-3.372-8.8-8.555-.35-7.725-.345-15.486-.024-23.212.225-5.431,3.062-8.017,8.748-8.476a111.89,111.89,0,0,1,12.808-.147c3.672.125,5.418-1.387,5.59-5.054a76.26,76.26,0,0,1,3.382-18.047c11.376-38.454,44.849-60.317,86.064-55.676,6.386.72,12.687,1.862,18.5,4.766,9.457,4.721,12.2,13.759,6.782,22.76-2.337,3.88-5.023,7.557-7.652,11.254-3.869,5.44-9.112,7.149-15.466,5.245A43.932,43.932,0,0,0,139,753.629c-16.49,1.724-29.271,16.886-28.226,33.348.192,3.024,1.852,3.445,4.2,3.445q8.412,0,16.824.02c8.278.01,16.561-.141,24.834.073,7.3.19,10.328,3.092,10.585,10.151.242,6.664.254,13.353-.011,20.016-.279,7-3.545,10.1-10.6,10.2-10.145.149-20.3-.138-30.44.121-4.956.127-11.233-2.352-14.548,1.272-3.23,3.532-1.044,9.735-1.1,14.75C110.372,861.7,110.472,876.385,110.472,891.067Z" transform="translate(-37.357 -63.202)"/>
    <path d="M394.747,872.417c0-12.009-.105-24.019.059-36.026.054-4.019-1.2-5.86-5.466-5.646-5.059.255-10.145.174-15.212.016-7.916-.247-10.929-3.355-11.069-11.365-.108-6.136-.141-12.278.015-18.412.189-7.5,3.216-10.553,10.793-10.851,5.065-.2,10.149-.209,15.213-.021,4.046.15,5.852-1.264,5.727-5.537-.219-7.466-.139-14.944-.019-22.414.133-8.376,2.761-11.075,10.983-11.206,8.007-.128,16.019-.142,24.025,0,7.9.145,10.9,3.243,11.1,11.357.152,6.4.014,12.809.043,19.213.039,8.5.055,8.515,8.917,8.541,8.542.025,17.086-.069,25.628.031,9.747.114,12.445,2.808,12.546,12.329.059,5.6.084,11.209-.007,16.812-.136,8.4-3.118,11.4-11.687,11.522-9.342.129-18.687,0-28.03.046-7.276.036-7.339.079-7.358,7.565q-.063,24.819,0,49.637c.008,5.352.306,10.672,2.389,15.721,3.3,8,9.4,12.076,18.105,11.825a39.509,39.509,0,0,0,15.381-3.946c7.877-3.6,11.152-2.536,16.04,4.832,3.835,5.78,7.724,11.536,11.264,17.5,3.395,5.717,2.483,10.094-2.749,13.89-26.378,19.134-68.972,17.194-91.337-6.606-9.718-10.342-15.111-22.5-15.244-36.784-.1-10.673-.02-21.348-.02-32.023Z" transform="translate(-37.357 -63.202)"/>
    <path d="M699.674,872.982c0-23.222.306-46.449-.136-69.663-.205-10.784,5.324-13.666,13.459-13.308a20.957,20.957,0,0,1,12.625,4.294c1.881,1.489,3.714,3.054,5.441,4.717,5.472,5.268,5.45,5.294,11.011.662,7.5-6.247,15.809-11.024,25.489-12.751,13.059-2.33,26.054-1.942,38.73,2.4,7.356,2.519,9.22,5.889,7.324,13.378s-3.894,14.969-6.074,22.386c-2.621,8.92-6.529,10.743-15.633,7.732a43.056,43.056,0,0,0-6.924-1.9c-19.729-3-33.871,7-38,26.575a65.3,65.3,0,0,0-1.086,13.529q-.027,34.833-.01,69.665c0,1.869.1,3.746-.046,5.6-.473,6.026-3.572,9.3-9.652,9.487-8,.251-16.019.13-24.029.064-9.5-.08-12.452-2.972-12.475-12.4C699.636,919.959,699.674,896.471,699.674,872.982Z" transform="translate(-37.357 -63.202)"/>
  </g>
</svg>
